<?xml version="1.0" encoding="UTF-8" standalone="no"?>
<!DOCTYPE svg PUBLIC "-//W3C//DTD SVG 1.1//EN" "http://www.w3.org/Graphics/SVG/1.1/DTD/svg11.dtd">
<svg width="100%" height="100%" viewBox="0 0 393 86" version="1.1" xmlns="http://www.w3.org/2000/svg" xmlns:xlink="http://www.w3.org/1999/xlink" xml:space="preserve" xmlns:serif="http://www.serif.com/" style="fill-rule:evenodd;clip-rule:evenodd;stroke-linejoin:round;stroke-miterlimit:2;">
    <rect x="0" y="0" width="392.696" height="85.586" style="fill:white;"/>
    <g transform="matrix(1,0,0,1,-240.142,-241.584)">
        <path d="M302.1,275.068C303.15,272.056 305.055,269.592 307.816,267.676C310.577,265.759 313.919,264.801 317.843,264.801C321.311,264.801 324.403,265.577 327.118,267.128C329.833,268.68 331.955,270.893 333.484,273.768C335.012,276.642 335.777,279.996 335.777,283.829C335.777,287.662 335.012,291.028 333.484,293.925C331.955,296.823 329.833,299.059 327.118,300.633C324.403,302.208 321.311,302.995 317.843,302.995C313.965,302.995 310.645,302.025 307.884,300.086C305.124,298.146 303.196,295.694 302.1,292.728L302.1,319.97L299.02,319.97L299.02,265.28L302.1,265.28L302.1,275.068ZM374.244,281.365C374.244,283.008 374.199,284.24 374.107,285.061L342.005,285.061C342.097,288.393 342.827,291.199 344.196,293.481C345.565,295.762 347.367,297.473 349.603,298.614C351.839,299.755 354.28,300.325 356.927,300.325C360.578,300.325 363.635,299.424 366.099,297.622C368.563,295.819 370.115,293.366 370.753,290.263L373.97,290.263C373.24,294.051 371.369,297.12 368.358,299.47C365.346,301.82 361.536,302.995 356.927,302.995C353.459,302.995 350.356,302.219 347.618,300.668C344.88,299.116 342.736,296.892 341.184,293.994C339.633,291.096 338.857,287.708 338.857,283.829C338.857,279.951 339.621,276.574 341.15,273.699C342.678,270.824 344.812,268.623 347.55,267.094C350.288,265.565 353.413,264.801 356.927,264.801C360.486,264.801 363.578,265.565 366.202,267.094C368.825,268.623 370.822,270.653 372.191,273.186C373.56,275.718 374.244,278.445 374.244,281.365ZM270.683,302.995C266.257,302.995 262.264,301.957 258.705,299.88C255.145,297.804 252.362,294.895 250.354,291.153C248.346,287.412 247.342,283.191 247.342,278.49C247.342,273.745 248.346,269.512 250.354,265.793C252.362,262.074 255.145,259.177 258.705,257.101C262.264,255.024 266.257,253.986 270.683,253.986C275.109,253.986 279.102,255.024 282.661,257.101C286.221,259.177 289.004,262.074 291.012,265.793C293.02,269.512 294.024,273.745 294.024,278.49C294.024,283.191 293.02,287.412 291.012,291.153C289.004,294.895 286.221,297.804 282.661,299.88C279.102,301.957 275.109,302.995 270.683,302.995ZM485.561,283.282C485.561,279.358 486.303,275.912 487.786,272.946C489.269,269.98 491.288,267.699 493.844,266.101C496.399,264.504 499.251,263.706 502.399,263.706C505.092,263.706 507.453,264.253 509.484,265.349C511.514,266.444 513.077,267.881 514.172,269.661L514.172,264.253L525.877,264.253L525.877,302.447L514.172,302.447L514.172,297.04C513.032,298.819 511.446,300.257 509.415,301.352C507.385,302.447 505.023,302.995 502.331,302.995C499.228,302.995 496.399,302.185 493.844,300.565C491.288,298.945 489.269,296.641 487.786,293.652C486.303,290.663 485.561,287.206 485.561,283.282ZM622.443,299.252L625.638,302.448L578.124,302.448L578.124,254.933L581.497,258.306L579.565,260.238L581.44,262.112L583.371,260.181L585.404,262.213L583.473,264.145L585.347,266.019L587.279,264.088L589.311,266.12L587.38,268.052L589.254,269.926L591.186,267.995L593.218,270.028L591.287,271.959L593.161,273.834L595.093,271.902L597.126,273.935L595.194,275.866L597.069,277.741L599,275.809L601.033,277.842L599.101,279.773L600.976,281.648L602.907,279.716L604.94,281.749L603.008,283.681L604.883,285.555L606.815,283.624L608.847,285.656L606.916,287.588L608.79,289.462L610.722,287.531L612.754,289.563L610.823,291.495L612.697,293.37L614.629,291.438L616.662,293.471L614.73,295.402L616.605,297.277L618.536,295.345L620.569,297.378L618.637,299.309L620.512,301.184L622.443,299.252ZM433.541,254.397C438.606,254.397 443.033,255.401 446.82,257.409C450.607,259.416 453.539,262.234 455.616,265.862C457.692,269.49 458.73,273.676 458.73,278.422C458.73,283.122 457.692,287.297 455.616,290.948C453.539,294.599 450.596,297.428 446.786,299.435C442.976,301.443 438.561,302.447 433.541,302.447L415.539,302.447L415.539,254.397L433.541,254.397ZM473.651,270.619C475.02,268.52 476.732,266.866 478.785,265.657C480.838,264.447 483.12,263.843 485.63,263.843L485.63,276.232L482.413,276.232C479.492,276.232 477.302,276.859 475.842,278.114C474.382,279.369 473.651,281.571 473.651,284.719L473.651,302.447L461.947,302.447L461.947,264.253L473.651,264.253L473.651,270.619ZM554.146,264.253L554.146,254.944L565.85,254.944L565.85,264.253L573.517,264.253L573.517,273.973L565.85,273.973L565.85,289.305C565.85,290.446 566.124,291.267 566.672,291.769C567.219,292.271 568.132,292.522 569.41,292.522L573.585,292.522L573.585,302.447L567.63,302.447C563.386,302.447 560.078,301.409 557.705,299.333C555.332,297.257 554.146,293.868 554.146,289.168L554.146,273.973L543.879,273.973L543.879,302.447L532.174,302.447L532.174,273.973L527.93,273.973L527.93,264.253L532.174,264.253L532.174,263.158C532.174,258.458 533.52,254.887 536.213,252.446C538.905,250.005 542.852,248.784 548.054,248.784C548.921,248.784 549.56,248.807 549.971,248.853L549.971,258.778C547.735,258.641 546.16,258.96 545.248,259.736C544.335,260.512 543.879,261.903 543.879,263.911L543.879,264.253L554.146,264.253ZM396.011,264.527C400.437,264.527 404.042,265.885 406.825,268.6C409.609,271.315 411.001,275.342 411.001,280.681L411.001,302.447L407.989,302.447L407.989,280.886C407.989,276.46 406.871,273.072 404.635,270.722C402.399,268.372 399.365,267.197 395.532,267.197C391.516,267.197 388.31,268.474 385.915,271.03C383.519,273.585 382.321,277.373 382.321,282.392L382.321,302.447L379.241,302.447L379.241,265.28L382.321,265.28L382.321,273.152C383.371,270.368 385.116,268.235 387.557,266.752C389.999,265.269 392.816,264.527 396.011,264.527ZM270.683,300.257C274.47,300.257 277.893,299.367 280.95,297.587C284.007,295.808 286.414,293.275 288.171,289.99C289.928,286.704 290.807,282.871 290.807,278.49C290.807,274.064 289.928,270.208 288.171,266.923C286.414,263.637 284.007,261.105 280.95,259.325C277.893,257.546 274.47,256.656 270.683,256.656C266.895,256.656 263.473,257.546 260.416,259.325C257.358,261.105 254.94,263.637 253.16,266.923C251.381,270.208 250.491,274.064 250.491,278.49C250.491,282.871 251.381,286.704 253.16,289.99C254.94,293.275 257.358,295.808 260.416,297.587C263.473,299.367 266.895,300.257 270.683,300.257ZM332.628,283.829C332.628,280.453 331.989,277.532 330.712,275.068C329.434,272.604 327.643,270.722 325.338,269.421C323.034,268.121 320.376,267.47 317.364,267.47C314.489,267.47 311.888,268.143 309.561,269.49C307.234,270.836 305.409,272.752 304.085,275.239C302.762,277.726 302.1,280.59 302.1,283.829C302.1,287.115 302.762,290.001 304.085,292.488C305.409,294.975 307.234,296.892 309.561,298.238C311.888,299.584 314.489,300.257 317.364,300.257C320.376,300.257 323.034,299.595 325.338,298.272C327.643,296.949 329.434,295.055 330.712,292.591C331.989,290.127 332.628,287.206 332.628,283.829ZM603.746,293.204L587.367,293.204L587.367,276.826L603.746,293.204ZM514.172,283.35C514.172,280.43 513.363,278.125 511.743,276.437C510.123,274.749 508.149,273.905 505.822,273.905C503.495,273.905 501.521,274.737 499.901,276.403C498.281,278.068 497.471,280.361 497.471,283.282C497.471,286.202 498.281,288.518 499.901,290.229C501.521,291.94 503.495,292.796 505.822,292.796C508.149,292.796 510.123,291.952 511.743,290.263C513.363,288.575 514.172,286.271 514.172,283.35ZM432.788,292.317C437.214,292.317 440.66,291.108 443.124,288.689C445.588,286.271 446.82,282.848 446.82,278.422C446.82,273.996 445.588,270.551 443.124,268.086C440.66,265.622 437.214,264.39 432.788,264.39L427.244,264.39L427.244,292.317L432.788,292.317ZM371.164,282.529C371.301,279.243 370.719,276.46 369.419,274.178C368.118,271.897 366.35,270.197 364.114,269.079C361.878,267.961 359.46,267.402 356.859,267.402C354.258,267.402 351.85,267.961 349.637,269.079C347.424,270.197 345.622,271.897 344.23,274.178C342.838,276.46 342.097,279.243 342.005,282.529L371.164,282.529Z" style="fill:rgb(42,42,42);"/>
    </g>
</svg>
