<?xml version="1.0" encoding="UTF-8" standalone="no"?>
<!DOCTYPE svg PUBLIC "-//W3C//DTD SVG 1.1//EN" "http://www.w3.org/Graphics/SVG/1.1/DTD/svg11.dtd">
<svg width="100%" height="100%" viewBox="0 0 32 32" version="1.1" xmlns="http://www.w3.org/2000/svg" xmlns:xlink="http://www.w3.org/1999/xlink" xml:space="preserve" xmlns:serif="http://www.serif.com/" style="fill-rule:evenodd;clip-rule:evenodd;stroke-linejoin:round;stroke-miterlimit:2;">
    <path d="M9.673,5.635L9.673,15.301L0.007,15.301L0.007,11.055C2.33,8.518 6.633,7.88 9.673,9.493L9.673,5.635Z" style="fill:rgb(113,195,61);"/>
    <g transform="matrix(0.34547,0,0,0.751612,-61.7443,-119.233)">
        <path d="M178.726,166.134L206.726,166.134L206.726,171.266C197.927,169.12 185.47,169.969 178.746,173.345L178.726,166.134Z" style="fill:rgb(141,207,100);"/>
    </g>
    <path d="M0.007,16.699L0.014,22.119C2.335,19.584 6.634,18.945 9.673,20.553L9.673,26.365L0.007,26.365L0.007,16.699ZM20.812,16.699L20.817,16.699L20.817,26.365L11.151,26.365L11.151,22.114C13.475,19.581 17.775,18.945 20.812,20.557L20.812,16.699ZM22.295,16.699L22.302,22.119C24.623,19.584 28.922,18.945 31.961,20.553L31.961,26.365L22.295,26.365L22.295,16.699ZM20.812,5.635L20.817,5.635L20.817,15.301L11.151,15.301L11.151,11.05C13.475,8.517 17.775,7.881 20.812,9.493L20.812,5.635ZM22.295,5.635L22.302,11.055C24.623,8.52 28.922,7.881 31.961,9.489L31.961,15.301L22.295,15.301L22.295,5.635Z" style="fill:rgb(218,224,230);"/>
    <path d="M11.139,16.699L20.812,16.699L20.812,20.557C17.773,18.944 13.469,19.582 11.146,22.119L11.139,16.699ZM0.007,16.699L9.68,16.699L9.68,20.557C6.64,18.944 2.337,19.582 0.014,22.119L0.007,16.699ZM22.295,16.699L31.968,16.699L31.968,20.557C28.929,18.944 24.625,19.582 22.302,22.119L22.295,16.699ZM11.139,5.635L20.812,5.635L20.812,9.493C17.773,7.88 13.469,8.518 11.146,11.055L11.139,5.635ZM22.295,5.635L31.968,5.635L31.968,9.493C28.929,7.88 24.625,8.518 22.302,11.055L22.295,5.635Z" style="fill:rgb(236,239,242);"/>
</svg>
