<?xml version="1.0" encoding="UTF-8" standalone="no"?>
<!DOCTYPE svg PUBLIC "-//W3C//DTD SVG 1.1//EN" "http://www.w3.org/Graphics/SVG/1.1/DTD/svg11.dtd">
<svg width="100%" height="100%" viewBox="0 0 32 32" version="1.1" xmlns="http://www.w3.org/2000/svg" xmlns:xlink="http://www.w3.org/1999/xlink" xml:space="preserve" xmlns:serif="http://www.serif.com/" style="fill-rule:evenodd;clip-rule:evenodd;stroke-linejoin:round;stroke-miterlimit:2;">
    <g transform="matrix(2.48418,0,0,2.48418,-346.351,-24.3112)">
        <circle cx="145.863" cy="16.227" r="5.636" style="fill:rgb(218,224,230);"/>
    </g>
    <g transform="matrix(1,0,0,1,-92.8049,-109.293)">
        <path d="M96.171,131.329C95.296,129.502 94.805,127.454 94.805,125.293C94.805,117.566 101.078,111.293 108.805,111.293C114.909,111.293 120.106,115.208 122.019,120.661C114.008,115.101 98.89,120.903 96.171,131.329Z" style="fill:rgb(236,239,242);"/>
    </g>
    <g transform="matrix(2.48418,0,0,2.48418,-346.351,-24.3112)">
        <path d="M145.863,10.591C148.974,10.591 151.499,13.117 151.499,16.227C151.499,19.338 148.974,21.863 145.863,21.863C142.753,21.863 140.228,19.338 140.228,16.227C140.228,13.117 142.753,10.591 145.863,10.591ZM145.863,11.43C148.511,11.43 150.66,13.58 150.66,16.227C150.66,18.875 148.511,21.024 145.863,21.024C143.216,21.024 141.066,18.875 141.066,16.227C141.066,13.58 143.216,11.43 145.863,11.43Z" style="fill:rgb(183,189,196);"/>
    </g>
</svg>
