<?xml version="1.0" encoding="UTF-8" standalone="no"?>
<!DOCTYPE svg PUBLIC "-//W3C//DTD SVG 1.1//EN" "http://www.w3.org/Graphics/SVG/1.1/DTD/svg11.dtd">
<svg width="100%" height="100%" viewBox="0 0 32 32" version="1.1" xmlns="http://www.w3.org/2000/svg" xmlns:xlink="http://www.w3.org/1999/xlink" xml:space="preserve" xmlns:serif="http://www.serif.com/" style="fill-rule:evenodd;clip-rule:evenodd;stroke-linejoin:round;stroke-miterlimit:2;">
    <g transform="matrix(2.83906,0,0,2.83906,-398.115,-30.0721)">
        <path d="M145.863,10.591C148.974,10.591 151.499,13.117 151.499,16.227C151.499,19.338 148.974,21.863 145.863,21.863C142.753,21.863 140.228,19.338 140.228,16.227C140.228,13.117 142.753,10.591 145.863,10.591ZM145.863,11.032C148.731,11.032 151.059,13.36 151.059,16.227C151.059,19.095 148.731,21.423 145.863,21.423C142.996,21.423 140.668,19.095 140.668,16.227C140.668,13.36 142.996,11.032 145.863,11.032Z" style="fill:rgb(218,224,230);"/>
    </g>
    <g transform="matrix(0.705582,0.705582,-0.705582,0.705582,-60.4433,-142.166)">
        <path d="M168.524,54.801L169.385,55.662L167.125,57.923L169.385,60.183L168.524,61.045L166.264,58.784L164.003,61.045L163.142,60.183L165.402,57.923L163.142,55.662L164.003,54.801L166.264,57.062L168.524,54.801Z" style="fill:white;"/>
        <path d="M168.524,54.801L169.385,55.662L167.125,57.923L169.385,60.183L168.524,61.045L166.264,58.784L164.003,61.045L163.142,60.183L165.402,57.923L163.142,55.662L164.003,54.801L166.264,57.062L168.524,54.801Z" style="fill:rgb(113,195,61);"/>
    </g>
    <g transform="matrix(0.736746,0,0,0.736746,-102.441,-39.184)">
        <circle cx="175.616" cy="60.07" r="3.902" style="fill:rgb(113,195,61);"/>
    </g>
</svg>
