<?xml version="1.0" encoding="UTF-8" standalone="no"?>
<!DOCTYPE svg PUBLIC "-//W3C//DTD SVG 1.1//EN" "http://www.w3.org/Graphics/SVG/1.1/DTD/svg11.dtd">
<svg width="100%" height="100%" viewBox="0 0 32 32" version="1.1" xmlns="http://www.w3.org/2000/svg" xmlns:xlink="http://www.w3.org/1999/xlink" xml:space="preserve" xmlns:serif="http://www.serif.com/" style="fill-rule:evenodd;clip-rule:evenodd;stroke-linejoin:round;stroke-miterlimit:2;">
    <g transform="matrix(1,0,0,1,-92.8049,-109.293)">
        <g transform="matrix(1,0,0,1,-127.479,-1.6151)">
            <path d="M223.831,128.786L226.973,128.786L226.973,139.293L223.831,139.293L223.831,128.786ZM238.265,117.704L238.265,114.562L248.787,114.562L248.787,117.704L238.265,117.704Z" style="fill:rgb(113,195,61);"/>
        </g>
        <g transform="matrix(1.50798,0,0,1.50798,-236.704,-54.908)">
            <path d="M222.979,119.711C222.979,119.397 223.001,119.089 223.043,118.789L220.913,118.488C220.857,118.887 220.828,119.295 220.828,119.711L222.979,119.711ZM223.237,117.89C223.324,117.594 223.431,117.307 223.558,117.032L221.605,116.13C221.434,116.501 221.289,116.886 221.172,117.285L223.237,117.89ZM224.002,116.232C224.17,115.977 224.357,115.735 224.56,115.508L222.958,114.072C222.683,114.378 222.431,114.705 222.204,115.05L224.002,116.232ZM225.22,114.874C225.454,114.68 225.704,114.503 225.966,114.345L224.855,112.502C224.501,112.715 224.165,112.954 223.848,113.216L225.22,114.874ZM226.784,113.93C227.064,113.814 227.355,113.716 227.655,113.639L227.123,111.554C226.721,111.657 226.331,111.788 225.956,111.945L226.784,113.93ZM228.563,113.476C228.801,113.45 229.043,113.437 229.289,113.437L229.289,111.285C228.965,111.285 228.645,111.302 228.331,111.336L228.563,113.476Z" style="fill:rgb(236,239,242);"/>
        </g>
    </g>
</svg>
