<?xml version="1.0" encoding="UTF-8" standalone="no"?>
<!DOCTYPE svg PUBLIC "-//W3C//DTD SVG 1.1//EN" "http://www.w3.org/Graphics/SVG/1.1/DTD/svg11.dtd">
<svg width="100%" height="100%" viewBox="0 0 32 32" version="1.1" xmlns="http://www.w3.org/2000/svg" xmlns:xlink="http://www.w3.org/1999/xlink" xml:space="preserve" xmlns:serif="http://www.serif.com/" style="fill-rule:evenodd;clip-rule:evenodd;stroke-linejoin:round;stroke-miterlimit:1.5;">
    <g transform="matrix(0.865049,0,0,0.716337,-152.258,-73.8517)">
        <path d="M187.751,109.311L187.751,141.311L176.726,141.311L187.751,109.311Z" style="fill:none;stroke:rgb(218,224,230);stroke-width:1.57px;"/>
    </g>
    <g transform="matrix(-0.865049,0,0,0.716337,184.258,-73.8517)">
        <path d="M181.014,142.183L178.124,142.183L178.124,140.438L181.014,140.438L181.014,142.183ZM186.794,142.183L183.904,142.183L183.904,140.438L186.794,140.438L186.794,142.183ZM176.632,139.313C176.917,138.485 177.296,137.384 177.742,136.091L179.076,136.761C178.631,138.054 178.251,139.155 177.966,139.983L176.632,139.313ZM188.473,135.486L188.473,138.976L187.028,138.976L187.028,135.486L188.473,135.486ZM178.852,132.868C179.205,131.844 179.578,130.762 179.962,129.646L181.296,130.317C180.912,131.432 180.539,132.514 180.186,133.539L178.852,132.868ZM188.473,128.506L188.473,131.996L187.028,131.996L187.028,128.506L188.473,128.506ZM181.072,126.424C181.442,125.352 181.814,124.272 182.182,123.202L183.517,123.872C183.148,124.942 182.776,126.023 182.406,127.094L181.072,126.424ZM188.473,121.526L188.473,125.016L187.028,125.016L187.028,121.526L188.473,121.526ZM183.293,119.98C183.678,118.861 184.051,117.779 184.403,116.757L185.737,117.428C185.385,118.449 185.012,119.531 184.627,120.65L183.293,119.98ZM188.473,114.546L188.473,118.036L187.028,118.036L187.028,114.546L188.473,114.546ZM187.932,111.056L186.847,114.205L185.513,113.535C185.97,112.21 186.351,111.104 186.623,110.313L187.028,110.517L187.028,109.33C187.028,108.779 187.236,108.466 187.737,108.457C188.237,108.449 188.473,108.725 188.473,109.33L188.473,111.056L187.932,111.056Z" style="fill:rgb(183,189,196);"/>
    </g>
    <path d="M19.798,27.595L19.798,28.81L16.608,28.81L16.608,32L15.392,32L15.392,28.81L12.202,28.81L12.202,27.595L15.392,27.595L15.392,24.405L16.608,24.405L16.608,27.595L19.798,27.595ZM16.325,21.268L15.675,21.268L15.675,22.619L16.325,22.619L16.325,21.268ZM16.325,18.566L15.675,18.566L15.675,19.917L16.325,19.917L16.325,18.566ZM16.325,15.864L15.675,15.864L15.675,17.215L16.325,17.215L16.325,15.864ZM16.325,13.161L15.675,13.161L15.675,14.512L16.325,14.512L16.325,13.161ZM16.325,10.198L15.675,10.198L15.675,11.549L16.325,11.549L16.325,10.198ZM16.325,7.235L15.675,7.235L15.675,8.586L16.325,8.586L16.325,7.235ZM16,0C17.587,0 18.875,1.288 18.875,2.875C18.875,4.461 17.587,5.749 16,5.749C14.413,5.749 13.125,4.461 13.125,2.875C13.125,1.288 14.413,0 16,0Z" style="fill:rgb(113,195,61);"/>
</svg>
