<?xml version="1.0" encoding="UTF-8" standalone="no"?>
<!DOCTYPE svg PUBLIC "-//W3C//DTD SVG 1.1//EN" "http://www.w3.org/Graphics/SVG/1.1/DTD/svg11.dtd">
<svg width="100%" height="100%" viewBox="0 0 32 32" version="1.1" xmlns="http://www.w3.org/2000/svg" xmlns:xlink="http://www.w3.org/1999/xlink" xml:space="preserve" xmlns:serif="http://www.serif.com/" style="fill-rule:evenodd;clip-rule:evenodd;stroke-linejoin:round;stroke-miterlimit:2;">
    <path d="M13.077,18.005L12.199,18.912L8.945,16.548L1.469,21.98C1.469,21.98 4.325,30.768 4.325,30.768C4.325,30.768 13.566,30.768 13.566,30.768C13.566,30.768 16.421,21.98 16.421,21.979L14.186,20.356L15.065,19.449L17.89,21.502L14.474,32.018L3.417,32.018L0,21.502L8.945,15.003L13.077,18.005Z" style="fill:rgb(218,224,230);"/>
    <path d="M18.633,15.765L18.197,16.215L18.197,17.015L20.697,17.015L20.697,15.765L18.633,15.765ZM25.697,17.015L25.697,15.765L23.197,15.765L23.197,17.015L25.697,17.015ZM29.236,15.004L28.048,14.618L27.269,17.014L28.583,17.015L29.236,15.004ZM17.634,13.301L17.377,12.511L16.189,12.897L16.65,14.317L17.634,13.301ZM30.782,10.249L29.593,9.863L28.82,12.241L30.009,12.627L30.782,10.249ZM14.643,8.142L15.416,10.52L16.605,10.134L15.832,7.756L14.643,8.142ZM32,6.499L31.145,5.878L30.365,7.485L31.554,7.872L32,6.499ZM16.757,4.576L14.734,6.045L15.469,7.056L17.492,5.587L16.757,4.576ZM27.1,2.939L26.365,3.95L28.388,5.42L29.122,4.408L27.1,2.939ZM20.802,1.637L18.779,3.106L19.514,4.117L21.537,2.648L20.802,1.637ZM23.055,0L25.077,1.469L24.343,2.481L22.32,1.011L23.055,0Z" style="fill:rgb(183,189,196);"/>
    <path d="M12.743,23.461L12.743,24.676L9.553,24.676L9.553,27.866L8.338,27.866L8.338,24.676L5.148,24.676L5.148,23.461L8.338,23.461L8.338,20.271L9.553,20.271L9.553,23.461L12.743,23.461ZM11.35,21.16L10.49,22.067L10.943,22.497L11.803,21.59L11.35,21.16ZM13.071,19.346L12.21,20.253L12.664,20.683L13.524,19.776L13.071,19.346ZM14.791,17.532L13.931,18.439L14.384,18.869L15.245,17.963L14.791,17.532ZM16.512,15.719L15.652,16.626L16.105,17.056L16.965,16.149L16.512,15.719ZM18.233,13.905L17.372,14.812L17.826,15.242L18.686,14.335L18.233,13.905ZM20.407,12.522L19.953,12.092L19.093,12.998L19.546,13.429L20.407,12.522ZM23.055,6.557C24.641,6.557 25.929,7.845 25.929,9.432C25.929,11.019 24.641,12.307 23.055,12.307C21.468,12.307 20.18,11.019 20.18,9.432C20.18,7.845 21.468,6.557 23.055,6.557Z" style="fill:rgb(113,195,61);"/>
</svg>
