<?xml version="1.0" encoding="UTF-8" standalone="no"?>
<!DOCTYPE svg PUBLIC "-//W3C//DTD SVG 1.1//EN" "http://www.w3.org/Graphics/SVG/1.1/DTD/svg11.dtd">
<svg width="100%" height="100%" viewBox="0 0 32 32" version="1.1" xmlns="http://www.w3.org/2000/svg" xmlns:xlink="http://www.w3.org/1999/xlink" xml:space="preserve" xmlns:serif="http://www.serif.com/" style="fill-rule:evenodd;clip-rule:evenodd;stroke-linejoin:round;stroke-miterlimit:2;">
    <path d="M11.91,10.48L14.007,8.384L0,8.384L0,29.214L20.83,29.214L20.83,19.4L11.91,10.48Z" style="fill:rgb(113,195,61);"/>
    <path d="M14.007,8.384L11.91,10.48L16.947,15.517C10.754,15.465 5.088,16.844 0,19.794L0,8.384L14.007,8.384ZM18.413,14.84L20.328,14.84C20.328,14.84 20.328,12.925 20.328,12.925C20.328,12.925 18.413,12.925 18.413,12.925L18.413,14.84Z" style="fill:rgb(141,207,100);"/>
    <g transform="matrix(1,0,0,1,-78.7677,-161.132)">
        <path d="M100.184,170.257L100.184,166.164L97.667,166.164L101.54,162.291L105.413,166.164L102.895,166.164L102.895,170.257L106.989,170.257L106.989,167.739L110.862,171.612L106.989,175.485L106.989,172.968L102.895,172.968L102.895,177.061L105.413,177.061L101.54,180.934L97.667,177.061L100.184,177.061L100.184,172.968L96.091,172.968L96.091,175.485L92.218,171.612L96.091,167.739L96.091,170.257L100.184,170.257Z" style="fill:rgb(218,224,230);"/>
    </g>
    <path d="M26.645,5.032L24.128,5.032L24.128,8.947C21.924,9.754 19.892,10.717 18.031,11.836L17.324,11.836L17.324,12.274C16.9,12.544 16.485,12.823 16.08,13.11L13.451,10.48L17.324,6.607L17.324,9.125L21.417,9.125L21.417,5.032L18.899,5.032L22.772,1.159L26.645,5.032ZM29.08,7.466L28.221,6.607L28.221,7.679C28.505,7.606 28.791,7.535 29.08,7.466Z" style="fill:rgb(236,239,242);"/>
</svg>
