<?xml version="1.0" encoding="UTF-8" standalone="no"?>
<!DOCTYPE svg PUBLIC "-//W3C//DTD SVG 1.1//EN" "http://www.w3.org/Graphics/SVG/1.1/DTD/svg11.dtd">
<svg width="100%" height="100%" viewBox="0 0 32 32" version="1.1" xmlns="http://www.w3.org/2000/svg" xmlns:xlink="http://www.w3.org/1999/xlink" xml:space="preserve" xmlns:serif="http://www.serif.com/" style="fill-rule:evenodd;clip-rule:evenodd;stroke-linejoin:round;stroke-miterlimit:2;">
    <g transform="matrix(1,0,0,1,-150,-46.6958)">
        <path d="M153.173,59.398L153.173,74.922L154.423,74.917L154.423,59.398C154.423,55.608 157.258,53.495 160.105,53.47C162.951,53.444 165.836,55.801 165.836,59.398L165.836,64.325C165.836,69.259 169.868,71.282 172.793,71.282C175.719,71.282 179.75,69.507 179.75,64.325L179.75,48.696L178.5,48.696L178.5,64.325C178.5,68.576 175.193,70.032 172.793,70.032C170.394,70.032 167.086,68.372 167.086,64.325L167.086,59.398C167.086,55.027 163.552,52.189 160.094,52.22C156.637,52.251 153.173,54.796 153.173,59.398Z" style="fill:rgb(218,224,230);"/>
    </g>
    <g transform="matrix(0.705582,0.705582,-0.705582,0.705582,-72.6456,-129.962)">
        <path d="M168.524,54.801L169.385,55.662L167.125,57.923L169.385,60.183L168.524,61.045L166.264,58.784L164.003,61.045L163.142,60.183L165.402,57.923L163.142,55.662L164.003,54.801L166.264,57.062L168.524,54.801Z" style="fill:white;"/>
        <path d="M168.524,54.801L169.385,55.662L167.125,57.923L169.385,60.183L168.524,61.045L166.264,58.784L164.003,61.045L163.142,60.183L165.402,57.923L163.142,55.662L164.003,54.801L166.264,57.062L168.524,54.801Z" style="fill:rgb(113,195,61);"/>
    </g>
    <g transform="matrix(0.736746,0,0,0.736746,-100.259,-41.3816)">
        <circle cx="175.616" cy="60.07" r="3.902" style="fill:rgb(113,195,61);"/>
    </g>
</svg>
