<?xml version="1.0" encoding="UTF-8" standalone="no"?>
<!DOCTYPE svg PUBLIC "-//W3C//DTD SVG 1.1//EN" "http://www.w3.org/Graphics/SVG/1.1/DTD/svg11.dtd">
<svg width="100%" height="100%" viewBox="0 0 32 32" version="1.1" xmlns="http://www.w3.org/2000/svg" xmlns:xlink="http://www.w3.org/1999/xlink" xml:space="preserve" xmlns:serif="http://www.serif.com/" style="fill-rule:evenodd;clip-rule:evenodd;stroke-linejoin:round;stroke-miterlimit:2;">
    <g transform="matrix(1,0,0,1,-150,-46.6958)">
        <path d="M153.173,74.908L153.173,74.916L153.173,74.916L153.173,74.916L153.173,74.922L154.423,74.917L154.423,74.916L154.423,55.249C154.423,51.459 157.258,49.346 160.105,49.321C162.951,49.295 165.836,51.652 165.836,55.249L165.836,70.364C165.836,75.298 169.868,77.321 172.793,77.321C175.719,77.321 179.75,75.546 179.75,70.364L179.75,48.696L178.5,48.696L178.5,70.364C178.5,74.615 175.193,76.071 172.793,76.071C170.394,76.071 167.086,74.411 167.086,70.364L167.086,55.249C167.086,50.878 163.552,48.04 160.094,48.071C156.637,48.102 153.173,50.647 153.173,55.249L153.173,74.908Z" style="fill:rgb(218,224,230);"/>
    </g>
    <g transform="matrix(0.705582,0.705582,-0.705582,0.705582,-72.6456,-129.962)">
        <path d="M168.524,54.801L169.385,55.662L167.125,57.923L169.385,60.183L168.524,61.045L166.264,58.784L164.003,61.045L163.142,60.183L165.402,57.923L163.142,55.662L164.003,54.801L166.264,57.062L168.524,54.801Z" style="fill:white;"/>
        <path d="M168.524,54.801L169.385,55.662L167.125,57.923L169.385,60.183L168.524,61.045L166.264,58.784L164.003,61.045L163.142,60.183L165.402,57.923L163.142,55.662L164.003,54.801L166.264,57.062L168.524,54.801Z" style="fill:rgb(113,195,61);"/>
    </g>
    <g transform="matrix(0.736746,0,0,0.736746,-100.259,-41.3816)">
        <circle cx="175.616" cy="60.07" r="3.902" style="fill:rgb(113,195,61);"/>
    </g>
</svg>
