<?xml version="1.0" encoding="UTF-8" standalone="no"?>
<!DOCTYPE svg PUBLIC "-//W3C//DTD SVG 1.1//EN" "http://www.w3.org/Graphics/SVG/1.1/DTD/svg11.dtd">
<svg width="100%" height="100%" viewBox="0 0 32 32" version="1.1" xmlns="http://www.w3.org/2000/svg" xmlns:xlink="http://www.w3.org/1999/xlink" xml:space="preserve" xmlns:serif="http://www.serif.com/" style="fill-rule:evenodd;clip-rule:evenodd;stroke-linejoin:round;stroke-miterlimit:2;">
    <g transform="matrix(1,0,0,1,-263.788,-49.7982)">
        <rect x="269.828" y="49.796" width="19.92" height="9.91" style="fill:white;"/>
    </g>
    <g transform="matrix(1,0,0,1,-261.052,-49.7982)">
        <path d="M288.679,55.75L288.679,59.707C288.679,60.627 287.932,61.373 287.012,61.373L267.092,61.373C266.171,61.373 265.425,60.627 265.425,59.707L265.425,55.75L261.052,55.75L261.052,67.75L293.052,67.75L293.052,55.75L288.679,55.75Z" style="fill:rgb(218,224,230);"/>
    </g>
    <g transform="matrix(-1,0,0,0.172572,295.788,-0.395345)">
        <path d="M289.748,36.779C285.172,47.611 278.428,55.093 269.828,59.707L289.748,59.707L289.748,36.779Z" style="fill:rgb(41,51,61);fill-opacity:0.2;"/>
    </g>
    <g transform="matrix(1,0,0,1,-263.788,-27.7087)">
        <rect x="269.828" y="49.796" width="19.92" height="9.91" style="fill:white;"/>
    </g>
    <g transform="matrix(1,0,0,1,-261.052,-49.7982)">
        <path d="M265.425,75.75L265.425,71.886C265.425,70.965 266.171,70.219 267.092,70.219L287.012,70.219C287.932,70.219 288.679,70.965 288.679,71.886L288.679,75.75L293.052,75.75L293.052,67.75L261.052,67.75L261.052,75.75L265.425,75.75Z" style="fill:rgb(183,189,196);"/>
    </g>
    <g transform="matrix(-0.0729274,-8.93103e-18,4.94061e-18,-0.0403432,132.458,54.6801)">
        <path d="M1672.88,619.157C1674.39,617.642 1676.67,617.19 1678.65,618.01C1680.63,618.83 1681.92,620.762 1681.92,622.904C1681.92,655.822 1681.92,742.473 1681.92,764.782C1681.92,767.708 1679.55,770.08 1676.62,770.08C1654.3,770.08 1567.59,770.08 1534.64,770.08C1532.5,770.08 1530.56,768.789 1529.74,766.808C1528.92,764.828 1529.38,762.549 1530.89,761.034C1559.03,732.918 1644.75,647.26 1672.88,619.157ZM1653.6,678.52L1653.6,739.405C1653.6,740.03 1653.35,740.629 1652.91,741.07C1652.47,741.512 1651.87,741.76 1651.25,741.76L1596.05,741.76C1595.09,741.76 1594.23,741.186 1593.87,740.306C1593.51,739.426 1593.71,738.414 1594.38,737.74C1608.3,723.82 1653.6,678.52 1653.6,678.52Z" style="fill:rgb(41,53,65);"/>
    </g>
    <g transform="matrix(-0.0729274,-8.93103e-18,4.94061e-18,-0.0403432,132.458,54.6801)">
        <path d="M1659.17,600.04C1661.31,600.04 1663.24,601.331 1664.06,603.311C1664.88,605.291 1664.43,607.569 1662.91,609.085C1634.79,637.213 1549.05,722.947 1520.92,751.075C1519.41,752.591 1517.13,753.044 1515.15,752.224C1513.17,751.404 1511.88,749.472 1511.88,747.329C1511.88,714.386 1511.88,627.658 1511.88,605.338C1511.88,602.412 1514.25,600.04 1517.18,600.04L1659.17,600.04ZM1540.2,630.715C1540.2,629.414 1541.25,628.36 1542.56,628.36C1551.62,628.36 1584.44,628.36 1597.76,628.36C1598.72,628.36 1599.57,628.933 1599.94,629.813C1600.3,630.692 1600.1,631.705 1599.43,632.378C1588.05,643.784 1555.62,676.272 1544.22,687.691C1543.55,688.365 1542.54,688.568 1541.65,688.203C1540.77,687.839 1540.2,686.98 1540.2,686.027C1540.2,672.676 1540.2,639.793 1540.2,630.715Z" style="fill:rgb(113,195,61);"/>
    </g>
    <g transform="matrix(1,0,0,1,-261.052,-49.7982)">
        <path d="M270.851,76.032C269.583,76.517 268.33,77.037 267.092,77.591L267.092,71.886L287.012,71.886C284.342,72.262 281.729,72.771 279.175,73.411L271.238,73.411C271.024,73.411 270.851,73.507 270.851,73.625L270.851,76.032ZM275.112,74.553C274.375,74.784 273.643,75.025 272.917,75.278L272.917,74.648C272.917,74.623 272.935,74.599 272.967,74.581C272.999,74.563 273.043,74.553 273.088,74.553L275.112,74.553Z" style="fill:rgb(41,51,61);fill-opacity:0.2;"/>
    </g>
</svg>
