<?xml version="1.0" encoding="UTF-8" standalone="no"?>
<!DOCTYPE svg PUBLIC "-//W3C//DTD SVG 1.1//EN" "http://www.w3.org/Graphics/SVG/1.1/DTD/svg11.dtd">
<svg width="100%" height="100%" viewBox="0 0 32 32" version="1.1" xmlns="http://www.w3.org/2000/svg" xmlns:xlink="http://www.w3.org/1999/xlink" xml:space="preserve" xmlns:serif="http://www.serif.com/" style="fill-rule:evenodd;clip-rule:evenodd;stroke-linejoin:round;stroke-miterlimit:2;">
    <g transform="matrix(1.06916,0,0,1.06731,-164.757,-51.8751)">
        <rect x="155.963" y="50.493" width="26.202" height="26.202" style="fill:rgb(218,224,230);"/>
    </g>
    <g transform="matrix(1,0,0,1,-135.188,-109.278)">
        <path d="M139.265,113.379C139.265,113.379 139.265,121.8 139.265,124.434C145.427,120.008 154.461,118.19 163.112,119.879L163.112,113.379L139.265,113.379Z" style="fill:rgb(236,239,242);"/>
    </g>
    <g transform="matrix(1.06916,0,0,1.06731,-164.757,-51.8751)">
        <path d="M182.165,50.493L155.963,50.493L155.963,76.696L182.165,76.696L182.165,50.493ZM180.217,52.445L180.217,74.744C180.217,74.744 157.912,74.744 157.912,74.744C157.912,74.744 157.912,52.445 157.912,52.445L180.217,52.445Z" style="fill:rgb(183,189,196);"/>
    </g>
</svg>
