<?xml version="1.0" encoding="UTF-8" standalone="no"?>
<!DOCTYPE svg PUBLIC "-//W3C//DTD SVG 1.1//EN" "http://www.w3.org/Graphics/SVG/1.1/DTD/svg11.dtd">
<svg width="100%" height="100%" viewBox="0 0 32 32" version="1.1" xmlns="http://www.w3.org/2000/svg" xmlns:xlink="http://www.w3.org/1999/xlink" xml:space="preserve" xmlns:serif="http://www.serif.com/" style="fill-rule:evenodd;clip-rule:evenodd;stroke-linejoin:round;stroke-miterlimit:2;">
    <g transform="matrix(0.967298,0,0,0.967298,-147.083,-45.0666)">
        <path d="M182.811,50.493C182.811,50.137 182.522,49.847 182.165,49.847L155.963,49.847C155.606,49.847 155.317,50.137 155.317,50.493L155.317,76.696C155.317,77.053 155.606,77.342 155.963,77.342L182.165,77.342C182.522,77.342 182.811,77.053 182.811,76.696L182.811,50.493ZM181.519,51.14L181.519,76.05C181.519,76.05 156.609,76.05 156.609,76.05C156.609,76.05 156.609,51.14 156.609,51.14L181.519,51.14Z" style="fill:rgb(218,224,230);"/>
    </g>
    <g transform="matrix(0.705582,0.705582,-0.705582,0.705582,-72.6634,-154.406)">
        <path d="M168.524,54.801L169.385,55.662L167.125,57.923L169.385,60.183L168.524,61.045L166.264,58.784L164.003,61.045L163.142,60.183L165.402,57.923L163.142,55.662L164.003,54.801L166.264,57.062L168.524,54.801Z" style="fill:white;"/>
        <path d="M168.524,54.801L169.385,55.662L167.125,57.923L169.385,60.183L168.524,61.045L166.264,58.784L164.003,61.045L163.142,60.183L165.402,57.923L163.142,55.662L164.003,54.801L166.264,57.062L168.524,54.801Z" style="fill:rgb(113,195,61);"/>
    </g>
    <g transform="matrix(0.736746,0,0,0.736746,-100.259,-15.1353)">
        <circle cx="175.616" cy="60.07" r="3.902" style="fill:rgb(113,195,61);"/>
    </g>
</svg>
