<?xml version="1.0" encoding="UTF-8" standalone="no"?>
<!DOCTYPE svg PUBLIC "-//W3C//DTD SVG 1.1//EN" "http://www.w3.org/Graphics/SVG/1.1/DTD/svg11.dtd">
<svg width="100%" height="100%" viewBox="0 0 32 32" version="1.1" xmlns="http://www.w3.org/2000/svg" xmlns:xlink="http://www.w3.org/1999/xlink" xml:space="preserve" xmlns:serif="http://www.serif.com/" style="fill-rule:evenodd;clip-rule:evenodd;stroke-linejoin:round;stroke-miterlimit:2;">
    <path d="M7.47,16.53C7.461,16.631 7.453,16.732 7.447,16.833C7.189,21.2 10.313,24.991 14.549,25.65L16.049,30.028L0,30.028L4.623,16.53L7.47,16.53Z" style="fill:rgb(113,195,61);"/>
    <path d="M7.467,16.568C7.459,16.656 7.452,16.744 7.447,16.833L7.444,16.884L7.442,16.935L7.439,16.986L7.437,17.037L7.436,17.088L7.435,17.139L7.433,17.199L7.433,17.242L7.432,17.298L7.432,17.342L7.432,17.392L7.433,17.443L7.434,17.493L7.435,17.544L7.437,17.607L7.438,17.652L7.44,17.696L7.442,17.745L7.445,17.795L7.447,17.845L7.451,17.895L7.454,17.944L7.458,17.994L7.463,18.056L7.467,18.1L7.471,18.144L7.476,18.192L7.481,18.242L7.486,18.291L7.492,18.34L7.498,18.389L7.507,18.454L7.513,18.498L7.518,18.538C7.523,18.57 7.528,18.601 7.532,18.633L7.54,18.683L7.548,18.731L7.557,18.78L7.565,18.828L7.577,18.891L7.585,18.934L7.593,18.974C7.599,19.005 7.605,19.036 7.612,19.067L7.622,19.116L7.633,19.164L7.644,19.212L7.659,19.277L7.669,19.32L7.68,19.362L7.69,19.402C7.697,19.433 7.706,19.463 7.714,19.494L7.727,19.542L7.74,19.589L7.753,19.636L7.771,19.699L7.783,19.741L7.794,19.777C7.808,19.822 7.822,19.868 7.837,19.913L7.852,19.96L7.868,20.006L7.89,20.072L7.904,20.113L7.919,20.154L7.932,20.189C7.948,20.234 7.964,20.278 7.981,20.322L7.999,20.369L8.016,20.414L8.042,20.477L8.058,20.517L8.074,20.557L8.089,20.593C8.102,20.622 8.114,20.651 8.127,20.68L8.146,20.724L8.166,20.768L8.185,20.812L8.213,20.872L8.232,20.911L8.25,20.95L8.267,20.986C8.281,21.014 8.294,21.042 8.308,21.069L8.33,21.114L8.352,21.157L8.374,21.199L8.396,21.241L8.425,21.295L8.445,21.333L8.466,21.371L8.487,21.41L8.51,21.451L8.534,21.493L8.558,21.534L8.582,21.576L8.606,21.617L8.63,21.658L8.64,21.674C8.683,21.745 8.727,21.815 8.772,21.885L8.782,21.9L8.796,21.922C8.843,21.994 8.89,22.065 8.939,22.134C6.595,22.263 4.282,22.943 2,24.189L4.623,16.53L7.47,16.53L7.467,16.568Z" style="fill:rgb(141,207,100);"/>
    <path d="M21.318,12.439L23.335,10.647L23.382,16.826L17.252,16.052L19.216,14.307C18.421,13.422 17.309,12.887 16.121,12.816C13.63,12.669 11.488,14.572 11.341,17.063C11.194,19.554 13.097,21.696 15.588,21.843C16.785,21.914 17.961,21.506 18.857,20.71L20.725,22.811C19.271,24.103 17.363,24.764 15.422,24.65C11.382,24.411 8.296,20.937 8.534,16.897C8.773,12.857 12.247,9.771 16.287,10.01C18.219,10.124 20.028,10.997 21.318,12.439ZM18.503,17.308L20.024,17.5L18.503,18.021L18.503,17.308ZM18.503,9.335L18.503,1.972L32,6.595L32,13.398L24.465,15.979L24.406,8.239L21.354,10.951C20.516,10.229 19.546,9.681 18.503,9.335Z" style="fill:rgb(218,224,230);"/>
    <path d="M15.91,9.997L16.287,10.01C18.219,10.124 20.028,10.997 21.318,12.439L23.335,10.647L23.363,14.269C21.845,14.072 20.389,14.007 18.994,14.076C18.794,13.884 18.579,13.711 18.35,13.56L17.566,13.145L16.726,12.893L15.831,12.808L14.958,12.897L14.291,13.087L13.84,13.282L13.192,13.676L12.562,14.232L12.272,14.571C12.025,14.892 11.819,15.247 11.664,15.629L11.517,16.05C10.478,16.597 9.49,17.259 8.555,18.036L8.526,17.082L8.534,16.897C8.59,15.961 8.819,15.076 9.188,14.272C10.357,11.728 12.932,9.991 15.863,9.997L15.91,9.997ZM18.503,9.335L18.503,1.972L32,6.595L32,10.567C29.946,9.453 27.193,8.882 24.412,9.011L24.406,8.239L23.456,9.083C22.222,9.213 20.997,9.484 19.841,9.911C19.413,9.681 18.965,9.488 18.503,9.335Z" style="fill:rgb(236,239,242);"/>
</svg>
