<?xml version="1.0" encoding="UTF-8" standalone="no"?>
<!DOCTYPE svg PUBLIC "-//W3C//DTD SVG 1.1//EN" "http://www.w3.org/Graphics/SVG/1.1/DTD/svg11.dtd">
<svg width="100%" height="100%" viewBox="0 0 32 32" version="1.1" xmlns="http://www.w3.org/2000/svg" xmlns:xlink="http://www.w3.org/1999/xlink" xml:space="preserve" xmlns:serif="http://www.serif.com/" style="fill-rule:evenodd;clip-rule:evenodd;stroke-linejoin:round;stroke-miterlimit:2;">
    <g transform="matrix(0.940036,-0.341074,0.341074,0.940036,-188.797,-92.333)">
        <path d="M146.388,166.862L154.985,182.259L137.792,182.259L146.388,166.862ZM146.388,169.426L152.855,181.009L139.921,181.009L146.388,169.426Z" style="fill:rgb(218,224,230);"/>
    </g>
    <g transform="matrix(0.487127,0.873331,-0.873331,0.487127,103.724,-209.047)">
        <path d="M153.7,179.959L154.986,182.262L153.553,182.259L152.609,180.568L153.7,179.959ZM150.12,182.259L152.619,182.259L152.619,181.009L150.12,181.009L150.12,182.259ZM151.263,175.593L150.172,176.202L151.39,178.385L152.482,177.776L151.263,175.593ZM145.119,182.259L147.62,182.259L147.62,181.009L145.119,181.009L145.119,182.259ZM148.826,171.227L147.734,171.837L148.953,174.02L150.044,173.41L148.826,171.227ZM140.119,182.259L142.619,182.259L142.619,181.009L140.119,181.009L140.119,182.259ZM146.388,166.862L145.188,169.012L146.279,169.621L146.388,169.426L146.516,169.654L147.607,169.044L146.388,166.862ZM142.751,173.377L143.842,173.987L145.061,171.804L143.969,171.194L142.751,173.377ZM140.313,177.743L141.405,178.352L142.623,176.169L141.532,175.56L140.313,177.743ZM139.223,182.259L137.789,182.264L139.095,179.926L140.186,180.535L139.223,182.259Z" style="fill:rgb(183,189,196);"/>
    </g>
    <path d="M13.252,23.33L13.252,24.545L10.062,24.545L10.062,27.736L8.846,27.736L8.846,24.545L5.656,24.545L5.656,23.33L8.846,23.33L8.846,20.14L10.062,20.14L10.062,23.33L13.252,23.33ZM22.612,18.534C24.199,18.534 25.487,19.822 25.487,21.409C25.487,22.995 24.199,24.283 22.612,24.283C21.026,24.283 19.738,22.995 19.738,21.409C19.738,19.822 21.026,18.534 22.612,18.534ZM9.767,19.709L9.822,18.489L9.199,18.432L9.142,19.709L9.767,19.709ZM9.987,17.279L10.259,16.088L9.657,15.921L9.372,17.167L9.987,17.279ZM10.638,14.926L11.119,13.804L10.556,13.532L10.053,14.706L10.638,14.926ZM11.699,12.729L12.375,11.712L11.871,11.343L11.164,12.408L11.699,12.729ZM13.141,10.761L13.99,9.884L13.561,9.429L12.672,10.347L13.141,10.761ZM24.233,4.703L24.233,5.918L21.043,5.918L21.043,9.108L19.828,9.108L19.828,5.918L16.638,5.918L16.638,4.703L19.828,4.703L19.828,1.513L21.043,1.513L21.043,4.703L24.233,4.703ZM14.916,9.089L15.911,8.38L15.572,7.855L14.531,8.596L14.916,9.089ZM16.966,7.764L18.072,7.242L17.83,6.666L16.675,7.211L16.966,7.764Z" style="fill:rgb(113,195,61);"/>
</svg>
