<?xml version="1.0" encoding="UTF-8" standalone="no"?>
<!DOCTYPE svg PUBLIC "-//W3C//DTD SVG 1.1//EN" "http://www.w3.org/Graphics/SVG/1.1/DTD/svg11.dtd">
<svg width="100%" height="100%" viewBox="0 0 32 32" version="1.1" xmlns="http://www.w3.org/2000/svg" xmlns:xlink="http://www.w3.org/1999/xlink" xml:space="preserve" xmlns:serif="http://www.serif.com/" style="fill-rule:evenodd;clip-rule:evenodd;stroke-linejoin:round;stroke-miterlimit:2;">
    <g transform="matrix(1,0,0,1,-92.3032,-49.7982)">
        <path d="M97.887,51.8L97.887,67.901L118.715,67.901L118.715,51.8L121.263,51.8C121.835,51.8 122.299,52.264 122.299,52.836C122.299,57.164 122.299,73.767 122.299,77.981C122.299,78.52 121.862,78.958 121.322,78.958L116.992,78.958L116.992,71.565L99.61,71.565L99.61,78.958L99.229,78.958L94.303,74.032L94.303,52.774C94.303,52.236 94.739,51.8 95.277,51.8L97.887,51.8Z" style="fill:rgb(218,224,230);"/>
    </g>
    <g transform="matrix(1,0,0,1,-92.3032,-49.7982)">
        <path d="M115.326,73.231L101.276,73.231L101.276,79.792L115.326,79.792L115.326,73.231ZM104.117,74.943L103.115,74.943L103.115,78.496L104.117,78.496L104.117,74.943ZM117.048,51.804L99.554,51.804L99.554,66.234L117.048,66.234L117.048,51.804ZM101.796,56.197L101.796,57.199L108.805,57.199L108.805,56.197L101.796,56.197ZM101.796,53.877L101.796,54.879L114.81,54.879L114.81,53.877L101.796,53.877Z" style="fill:white;"/>
    </g>
    <g transform="matrix(1,0,0,0.820839,-92.3032,-35.5025)">
        <path d="M115.326,77.384L104.117,77.384L104.117,78.214L103.115,78.214L103.115,77.384L101.276,77.384L101.276,79.792L115.326,79.792L115.326,77.384Z" style="fill:rgb(41,51,61);fill-opacity:0.2;"/>
    </g>
</svg>
