<?xml version="1.0" encoding="UTF-8" standalone="no"?>
<!DOCTYPE svg PUBLIC "-//W3C//DTD SVG 1.1//EN" "http://www.w3.org/Graphics/SVG/1.1/DTD/svg11.dtd">
<svg width="100%" height="100%" viewBox="0 0 32 32" version="1.1" xmlns="http://www.w3.org/2000/svg" xmlns:xlink="http://www.w3.org/1999/xlink" xml:space="preserve" xmlns:serif="http://www.serif.com/" style="fill-rule:evenodd;clip-rule:evenodd;stroke-linejoin:round;stroke-miterlimit:2;">
    <g transform="matrix(1,0,0,1,-134.418,-49.8003)">
        <path d="M138.05,51.8L138.05,67.901L157.352,67.901L155.236,71.565L139.819,71.565L139.819,78.958L139.392,78.958L134.466,74.032L134.466,52.774C134.466,52.236 134.902,51.8 135.44,51.8L138.05,51.8ZM162.462,76.795L162.462,77.981C162.462,78.52 162.025,78.958 161.485,78.958L161.213,78.958L162.462,76.795ZM158.878,55.766L160.501,55.766C160.501,55.766 160.501,59.019 160.501,59.019L162.462,59.019L162.462,62.289L161.059,61.479L158.878,65.258L158.878,55.766Z" style="fill:rgb(218,224,230);"/>
    </g>
    <g transform="matrix(1.01977,0,0,1.01977,-147.345,-70.7387)">
        <path d="M176.01,72.462L176.01,73.677L172.82,73.677L172.82,76.867L171.605,76.867L171.605,73.677L168.415,73.677L168.415,72.462L171.605,72.462L171.605,69.272L172.82,69.272L172.82,72.462L176.01,72.462Z" style="fill:rgb(113,195,61);"/>
    </g>
    <g transform="matrix(1,0,0,1,-134.418,-49.8003)">
        <path d="M152.43,76.425L154.274,73.231L141.486,73.231L141.486,79.792L152.651,79.792L152.43,76.425ZM144.277,74.943L143.275,74.943L143.275,78.496L144.277,78.496L144.277,74.943ZM157.211,51.804L139.717,51.804L139.717,66.234L157.211,66.234L157.211,51.804ZM141.957,56.197L141.957,57.199L148.966,57.199L148.966,56.197L141.957,56.197ZM141.957,53.877L141.957,54.879L154.971,54.879L154.971,53.877L141.957,53.877Z" style="fill:white;"/>
    </g>
    <g transform="matrix(0.54442,0.314321,-0.0377104,0.0653163,-65.231,-45.082)">
        <rect x="174.361" y="64.797" width="8.811" height="18.707" style="fill:rgb(212,48,0);"/>
    </g>
    <g transform="matrix(0.54442,0.314321,0.312837,-0.54185,-94.9754,6.43685)">
        <rect x="174.361" y="64.797" width="8.811" height="18.707" style="fill:rgb(255,232,0);"/>
    </g>
    <g transform="matrix(0.181158,0.104591,0.312837,-0.54185,-28.4356,44.8536)">
        <rect x="174.361" y="64.797" width="8.811" height="18.707" style="fill:rgb(210,194,13);"/>
    </g>
    <g transform="matrix(0.181158,0.104591,0.0377104,-0.0653163,-4.28371,3.02124)">
        <rect x="174.361" y="64.797" width="8.811" height="18.707" style="fill:rgb(176,49,13);"/>
    </g>
    <g transform="matrix(1,0,0,1,-134.418,-49.8003)">
        <path d="M154.126,76.822L158.923,79.591L154.452,81.796L154.126,76.822Z" style="fill:rgb(255,251,209);"/>
    </g>
    <g transform="matrix(1,0,0,1,-134.418,-49.8003)">
        <path d="M157.383,78.702L154.452,81.796L158.923,79.591L157.383,78.702Z" style="fill:rgb(212,211,179);"/>
    </g>
    <g transform="matrix(0.860025,0,0,0.820839,-80.032,-35.5047)">
        <path d="M114.108,77.384L104.522,77.384L104.522,78.214L103.357,78.214L103.357,77.384L101.276,77.384L101.276,79.792L114.258,79.792L114.108,77.384Z" style="fill:rgb(41,51,61);fill-opacity:0.2;"/>
    </g>
</svg>
