<?xml version="1.0" encoding="UTF-8" standalone="no"?>
<!DOCTYPE svg PUBLIC "-//W3C//DTD SVG 1.1//EN" "http://www.w3.org/Graphics/SVG/1.1/DTD/svg11.dtd">
<svg width="100%" height="100%" viewBox="0 0 32 32" version="1.1" xmlns="http://www.w3.org/2000/svg" xmlns:xlink="http://www.w3.org/1999/xlink" xml:space="preserve" xmlns:serif="http://www.serif.com/" style="fill-rule:evenodd;clip-rule:evenodd;stroke-linejoin:round;stroke-miterlimit:2;">
    <g transform="matrix(2.03291,0,0,2.03291,-107.792,-353.093)">
        <path d="M65.236,189.43L65.236,188.815L63.391,188.815L63.391,189.43L65.236,189.43ZM67.195,189.43L67.195,187.7L66.581,187.7L66.581,189.43L67.195,189.43ZM67.195,184.011L66.581,184.011L66.581,185.855L67.195,185.855L67.195,184.011ZM67.195,180.321L66.581,180.321L66.581,182.166L67.195,182.166L67.195,180.321ZM53.015,177.67L53.015,179.515L53.63,179.515L53.63,177.67L53.015,177.67ZM67.195,178.006L66.581,178.006L66.581,178.477L67.195,178.477L67.195,178.006ZM64.302,175.249L63.506,175.249L63.506,175.864L64.302,175.864L64.302,175.249ZM61.662,175.249L59.817,175.249L59.817,175.864L61.662,175.864L61.662,175.249ZM57.972,175.249L56.128,175.249L56.128,175.864L57.972,175.864L57.972,175.249ZM53.015,175.249L53.015,175.826L53.035,175.826L53.015,175.864L54.283,175.864L54.283,175.249L53.015,175.249Z" style="fill:rgb(183,189,196);"/>
    </g>
    <path d="M16.26,12.866C17.846,12.866 19.134,14.154 19.134,15.74C19.134,17.327 17.846,18.615 16.26,18.615C14.673,18.615 13.385,17.327 13.385,15.74C13.385,14.154 14.673,12.866 16.26,12.866ZM19.614,11.944C19.255,12.304 18.951,12.607 18.73,12.828L19.172,13.27C19.393,13.049 19.696,12.745 20.056,12.386L19.614,11.944ZM21.382,10.177C21.076,10.482 20.779,10.779 20.498,11.06L20.94,11.502C21.221,11.221 21.518,10.924 21.823,10.618L21.382,10.177ZM23.149,8.409C22.857,8.701 22.56,8.998 22.265,9.293L22.707,9.735C23.002,9.44 23.299,9.143 23.591,8.851L23.149,8.409ZM24.917,6.641C24.641,6.917 24.344,7.214 24.033,7.525L24.475,7.967C24.786,7.656 25.083,7.359 25.359,7.083L24.917,6.641ZM32,3.19L32,4.405L28.81,4.405L28.81,7.595L27.595,7.595L27.595,4.405L24.405,4.405L24.405,3.19L27.595,3.19L27.595,-0L28.81,-0L28.81,3.19L32,3.19ZM27.127,5.315C27.127,5.315 26.685,4.873 26.685,4.873L25.801,5.757L26.243,6.199L27.127,5.315Z" style="fill:rgb(113,195,61);"/>
    <path d="M12.206,14.927C12.153,15.19 12.126,15.462 12.126,15.74C12.126,15.888 12.133,16.034 12.149,16.177L1.25,16.177C1.25,16.177 1.25,30.75 1.25,30.75C1.25,30.75 15.823,30.75 15.823,30.75L15.823,19.851C15.966,19.867 16.112,19.874 16.26,19.874C16.538,19.874 16.81,19.847 17.073,19.794L17.073,32L0,32L0,14.927L12.206,14.927Z" style="fill:rgb(218,224,230);"/>
</svg>
