<?xml version="1.0" encoding="UTF-8" standalone="no"?>
<!DOCTYPE svg PUBLIC "-//W3C//DTD SVG 1.1//EN" "http://www.w3.org/Graphics/SVG/1.1/DTD/svg11.dtd">
<svg width="100%" height="100%" viewBox="0 0 32 32" version="1.1" xmlns="http://www.w3.org/2000/svg" xmlns:xlink="http://www.w3.org/1999/xlink" xml:space="preserve" xmlns:serif="http://www.serif.com/" style="fill-rule:evenodd;clip-rule:evenodd;stroke-linejoin:round;stroke-miterlimit:2;">
    <path d="M28.777,24.903L28.777,24.07L26.86,24.07L26.86,24.903L28.777,24.903ZM0.833,24.903L0,24.903L0,23.097L0.833,23.097L0.833,24.903ZM3.694,24.903L3.694,24.07L1.777,24.07L1.777,24.903L3.694,24.903ZM7.277,24.903L7.277,24.07L5.36,24.07L5.36,24.903L7.277,24.903ZM8.944,24.903L10.86,24.903L10.86,24.07L8.944,24.07L8.944,24.903ZM14.444,24.903L14.444,24.07L12.527,24.07L12.527,24.903L14.444,24.903ZM18.027,24.903L18.027,24.07L16.11,24.07L16.11,24.903L18.027,24.903ZM21.61,24.903L21.61,24.07L19.694,24.07L19.694,24.903L21.61,24.903ZM25.194,24.903L25.194,24.07L23.277,24.07L23.277,24.903L25.194,24.903ZM32,24.07L32,24.903L30.444,24.903L30.444,24.07L32,24.07ZM32,20.959L31.167,20.959L31.167,22.876L32,22.876L32,20.959ZM22.616,10.236L22.616,9.8L29.54,9.8L29.54,10.236L27.212,10.236C26.849,10.236 26.554,10.519 26.554,10.869L26.554,20.84C26.554,21.189 26.849,21.473 27.212,21.473L29.54,21.473L29.54,21.908L22.616,21.908L22.616,21.473L24.944,21.473C25.308,21.473 25.602,21.189 25.602,20.84L25.602,10.869C25.602,10.519 25.308,10.236 24.944,10.236L22.616,10.236ZM0,19.514L0,21.43L0.833,21.43L0.833,19.514L0,19.514ZM21.62,17.616L22.616,17.745C22.507,18.432 22.229,18.969 21.78,19.358C21.332,19.746 20.781,19.94 20.129,19.94C19.311,19.94 18.653,19.673 18.156,19.138C17.659,18.604 17.411,17.837 17.411,16.839C17.411,16.194 17.517,15.629 17.731,15.145C17.945,14.661 18.271,14.298 18.708,14.056C19.145,13.814 19.62,13.693 20.134,13.693C20.783,13.693 21.314,13.858 21.727,14.186C22.14,14.514 22.404,14.98 22.52,15.584L21.536,15.736C21.442,15.335 21.276,15.033 21.038,14.83C20.799,14.628 20.511,14.526 20.174,14.526C19.663,14.526 19.249,14.709 18.93,15.075C18.611,15.441 18.452,16.02 18.452,16.811C18.452,17.614 18.605,18.197 18.913,18.561C19.221,18.925 19.622,19.107 20.117,19.107C20.515,19.107 20.847,18.985 21.113,18.741C21.38,18.498 21.549,18.122 21.62,17.616ZM12.244,19.805L11.305,19.805L11.305,11.555L12.317,11.555L12.317,14.498C12.745,13.962 13.291,13.693 13.955,13.693C14.323,13.693 14.671,13.768 14.999,13.916C15.327,14.064 15.597,14.272 15.809,14.54C16.021,14.809 16.187,15.132 16.307,15.511C16.428,15.89 16.488,16.295 16.488,16.727C16.488,17.751 16.234,18.543 15.728,19.102C15.221,19.661 14.614,19.94 13.904,19.94C13.199,19.94 12.646,19.646 12.244,19.057L12.244,19.805ZM2.846,19.805L6.015,11.555L7.191,11.555L10.567,19.805L9.324,19.805L8.361,17.306L4.912,17.306L4.005,19.805L2.846,19.805ZM32,17.376L31.167,17.376L31.167,19.293L32,19.293L32,17.376ZM12.233,16.772C12.233,17.488 12.331,18.006 12.526,18.325C12.845,18.846 13.276,19.107 13.82,19.107C14.263,19.107 14.645,18.915 14.968,18.53C15.291,18.146 15.452,17.573 15.452,16.811C15.452,16.031 15.297,15.455 14.988,15.083C14.678,14.712 14.304,14.526 13.865,14.526C13.422,14.526 13.04,14.719 12.717,15.103C12.394,15.488 12.233,16.044 12.233,16.772ZM0,15.93L0,17.847L0.833,17.847L0.833,15.93L0,15.93ZM5.227,16.417L8.024,16.417L7.163,14.132C6.9,13.438 6.705,12.868 6.577,12.422C6.472,12.951 6.324,13.476 6.133,13.997L5.227,16.417ZM32,13.793L31.167,13.793L31.167,15.709L32,15.709L32,13.793ZM0,12.347L0,14.264L0.833,14.264L0.833,12.347L0,12.347ZM32,10.209L31.167,10.209L31.167,12.126L32,12.126L32,10.209ZM0,8.764L0,10.68L0.833,10.68L0.833,8.764L0,8.764ZM32,8.543L31.167,8.543L31.167,7.097L32,7.097L32,8.543ZM5.5,7.097L3.583,7.097L3.583,7.93L5.5,7.93L5.5,7.097ZM30.583,7.097L28.667,7.097L28.667,7.93L30.583,7.93L30.583,7.097ZM19.833,7.097L17.917,7.097L17.917,7.93L19.833,7.93L19.833,7.097ZM16.25,7.097L14.333,7.097L14.333,7.93L16.25,7.93L16.25,7.097ZM27,7.097L25.083,7.097L25.083,7.93L27,7.93L27,7.097ZM23.417,7.097L21.5,7.097L21.5,7.93L23.417,7.93L23.417,7.097ZM12.667,7.097L10.75,7.097L10.75,7.93L12.667,7.93L12.667,7.097ZM9.083,7.097L7.167,7.097L7.167,7.93L9.083,7.93L9.083,7.097ZM1.917,7.93L0,7.93L0,7.097L1.917,7.097L1.917,7.93Z" style="fill:rgb(236,239,242);fill-rule:nonzero;"/>
</svg>
