<?xml version="1.0" encoding="UTF-8" standalone="no"?>
<!DOCTYPE svg PUBLIC "-//W3C//DTD SVG 1.1//EN" "http://www.w3.org/Graphics/SVG/1.1/DTD/svg11.dtd">
<svg width="100%" height="100%" viewBox="0 0 32 32" version="1.1" xmlns="http://www.w3.org/2000/svg" xmlns:xlink="http://www.w3.org/1999/xlink" xml:space="preserve" xmlns:serif="http://www.serif.com/" style="fill-rule:evenodd;clip-rule:evenodd;stroke-linejoin:round;stroke-miterlimit:2;">
    <g transform="matrix(1.17478,0,0,1.17478,-194.746,-60.3083)">
        <path d="M193.011,55.512L193.011,74.395L176.726,64.953L193.011,55.512Z" style="fill:rgb(113,195,61);"/>
    </g>
    <g transform="matrix(1,0,0,1,-176.726,-49.7982)">
        <path d="M195.857,60.239L188.759,64.354C188.244,64.652 187.928,65.202 187.928,65.796C187.928,66.39 188.244,66.94 188.759,67.238L195.857,71.353L195.857,76.887L176.726,65.796L195.857,54.705L195.857,60.239Z" style="fill:rgb(218,224,230);"/>
    </g>
    <g transform="matrix(1.17478,0,0,1.17478,-194.746,-60.2621)">
        <path d="M193.011,55.473L193.011,62.357C188.947,64.494 181.595,65.439 176.726,64.914L193.011,55.473Z" style="fill:white;fill-opacity:0.2;"/>
    </g>
    <g transform="matrix(1,0,0,1,-176.726,-49.7982)">
        <path d="M195.857,60.239L188.759,64.354C188.411,64.556 188.153,64.873 188.023,65.241C184.143,65.941 179.966,66.145 176.726,65.796L195.857,54.705L195.857,60.239Z" style="fill:white;fill-opacity:0.2;"/>
    </g>
</svg>
