<?xml version="1.0" encoding="UTF-8" standalone="no"?>
<!DOCTYPE svg PUBLIC "-//W3C//DTD SVG 1.1//EN" "http://www.w3.org/Graphics/SVG/1.1/DTD/svg11.dtd">
<svg width="130px" height="130px" version="1.1" xmlns="http://www.w3.org/2000/svg" xmlns:xlink="http://www.w3.org/1999/xlink" xml:space="preserve" xmlns:serif="http://www.serif.com/" style="fill-rule:evenodd;clip-rule:evenodd;stroke-linejoin:round;stroke-miterlimit:2;">
    <rect id="Logomark-Light" serif:id="Logomark Light" x="0" y="0" width="130" height="130" style="fill:none;"/>
    <clipPath id="_clip1">
        <rect x="0" y="0" width="130" height="130"/>
    </clipPath>
    <g clip-path="url(#_clip1)">
        <path d="M6.914,115.385C5.755,116.543 4.013,116.889 2.5,116.262C0.987,115.634 -0,114.158 0,112.52C0,87.353 0,21.106 0,4.051C0,1.814 1.814,0 4.051,0C21.113,0 87.412,0 112.601,0C114.24,0 115.717,0.987 116.344,2.501C116.97,4.015 116.623,5.758 115.464,6.916C93.952,28.412 28.415,93.899 6.914,115.385ZM21.651,70L21.651,23.452C21.651,22.974 21.841,22.516 22.179,22.179C22.516,21.841 22.974,21.651 23.452,21.651L65.654,21.651C66.382,21.651 67.038,22.09 67.317,22.763C67.596,23.435 67.442,24.21 66.927,24.725C56.284,35.367 21.651,70 21.651,70Z" style="fill:rgb(20,32,43);"/>
        <path d="M17.394,130C15.756,130 14.279,129.013 13.652,127.499C13.025,125.986 13.371,124.244 14.53,123.085C36.034,101.58 101.58,36.034 123.085,14.53C124.244,13.371 125.986,13.025 127.499,13.652C129.013,14.279 130,15.756 130,17.394C130,42.579 130,108.886 130,125.949C130,128.186 128.186,130 125.949,130L17.394,130ZM108.349,106.548C108.349,107.543 107.543,108.349 106.548,108.349C99.615,108.349 74.524,108.349 64.34,108.349C63.613,108.349 62.956,107.91 62.678,107.238C62.399,106.566 62.552,105.792 63.066,105.277C71.77,96.556 96.56,71.719 105.274,62.989C105.789,62.473 106.563,62.318 107.236,62.597C107.91,62.875 108.349,63.532 108.349,64.26C108.349,74.468 108.349,99.608 108.349,106.548Z" style="fill:rgb(10,164,118);"/>
        <path d="M0,44.301L0,4.051C0,1.814 1.814,0 4.051,0C21.113,0 87.412,0 112.601,0C114.24,0 115.717,0.987 116.344,2.501C116.97,4.015 116.623,5.758 115.464,6.916L87.215,35.144C75.721,36.447 64.228,37.712 52.71,38.942L66.927,24.725C67.442,24.21 67.596,23.435 67.317,22.763C67.038,22.09 66.382,21.651 65.654,21.651L23.452,21.651C22.974,21.651 22.516,21.841 22.179,22.179C21.841,22.516 21.651,22.974 21.651,23.452L21.651,42.164C14.447,42.89 7.244,43.601 0,44.301Z" style="fill:rgb(45,70,89);"/>
        <path d="M104.455,33.16L123.085,14.53C124.244,13.371 125.986,13.025 127.499,13.652C129.013,14.279 130,15.756 130,17.394L130,30.116C121.489,31.151 112.978,32.165 104.455,33.16Z" style="fill:rgb(2,202,141);"/>
    </g>
</svg>
