<?xml version="1.0" encoding="UTF-8" standalone="no"?>
<!DOCTYPE svg PUBLIC "-//W3C//DTD SVG 1.1//EN" "http://www.w3.org/Graphics/SVG/1.1/DTD/svg11.dtd">
<svg width="130px" height="130px" version="1.1" xmlns="http://www.w3.org/2000/svg" xmlns:xlink="http://www.w3.org/1999/xlink" xml:space="preserve" xmlns:serif="http://www.serif.com/" style="fill-rule:evenodd;clip-rule:evenodd;stroke-linejoin:round;stroke-miterlimit:2;">
    <rect id="Logomark-Dark" serif:id="Logomark Dark" x="-0" y="0" width="130" height="130" style="fill:none;"/>
    <clipPath id="_clip1">
        <rect x="-0" y="0" width="130" height="130"/>
    </clipPath>
    <g clip-path="url(#_clip1)">
        <path d="M6.914,115.264C5.755,116.422 4.013,116.768 2.5,116.141C0.987,115.514 -0,114.037 0,112.399C0,87.232 0,20.986 0,3.93C0,1.693 1.814,-0.12 4.051,-0.12C21.113,-0.12 87.412,-0.12 112.601,-0.12C114.24,-0.12 115.717,0.867 116.344,2.381C116.97,3.895 116.623,5.637 115.464,6.796C93.952,28.291 28.415,93.779 6.914,115.264ZM21.651,69.88L21.651,23.331C21.651,22.854 21.841,22.396 22.179,22.058C22.516,21.721 22.974,21.531 23.452,21.531L65.654,21.531C66.382,21.531 67.038,21.97 67.317,22.642C67.596,23.315 67.442,24.089 66.927,24.604C56.284,35.247 21.651,69.88 21.651,69.88Z" style="fill:rgb(225,225,226);"/>
        <path d="M17.394,129.88C15.756,129.88 14.279,128.893 13.652,127.379C13.025,125.865 13.371,124.123 14.53,122.965C36.034,101.46 101.58,35.914 123.085,14.409C124.244,13.251 125.986,12.904 127.499,13.531C129.013,14.158 130,15.635 130,17.273C130,42.459 130,108.765 130,125.829C130,128.066 128.186,129.879 125.949,129.88L17.394,129.88ZM108.349,106.428C108.349,107.422 107.543,108.228 106.548,108.228C99.615,108.228 74.524,108.228 64.34,108.228C63.613,108.228 62.956,107.79 62.678,107.118C62.399,106.445 62.552,105.671 63.066,105.156C71.77,96.436 96.56,71.598 105.274,62.868C105.789,62.353 106.563,62.198 107.236,62.476C107.91,62.755 108.349,63.411 108.349,64.14C108.349,74.347 108.349,99.487 108.349,106.428Z" style="fill:rgb(10,164,118);"/>
        <path d="M0,44.18L0,3.93C0,1.693 1.814,-0.12 4.051,-0.12C21.113,-0.12 87.412,-0.12 112.601,-0.12C114.24,-0.12 115.717,0.867 116.344,2.381C116.97,3.895 116.623,5.637 115.464,6.796L87.215,35.023C75.721,36.327 64.228,37.592 52.71,38.821L66.927,24.604C67.442,24.089 67.596,23.315 67.317,22.642C67.038,21.97 66.382,21.531 65.654,21.531L23.452,21.531C22.974,21.531 22.516,21.721 22.179,22.058C21.841,22.396 21.651,22.854 21.651,23.331L21.651,42.044C14.447,42.77 7.244,43.481 0,44.18Z" style="fill:rgb(251,251,251);"/>
        <path d="M104.455,33.04L123.085,14.409C124.244,13.251 125.986,12.904 127.499,13.531C129.013,14.158 130,15.635 130,17.273L130,29.995C121.489,31.03 112.978,32.045 104.455,33.04Z" style="fill:rgb(2,202,141);"/>
    </g>
</svg>
