<?xml version="1.0" encoding="UTF-8" standalone="no"?><!DOCTYPE svg PUBLIC "-//W3C//DTD SVG 1.1//EN" "http://www.w3.org/Graphics/SVG/1.1/DTD/svg11.dtd"><svg width="32px" height="32px" version="1.1" xmlns="http://www.w3.org/2000/svg" xmlns:xlink="http://www.w3.org/1999/xlink" xml:space="preserve" xmlns:serif="http://www.serif.com/" style="fill-rule:evenodd;clip-rule:evenodd;stroke-linejoin:round;stroke-miterlimit:2;"><g transform="matrix(1,0,0,1,0,-45.161018)"><g id="Palette"></g><g id="Guides"></g><g id="Polyline"></g><g id="Circle"></g><g id="Rectangle"></g><g id="Line" transform="matrix(1.168403,0,0,0.997256,200.40641,3.602026)"><rect x="-171.522" y="41.673" width="27.388" height="32.088" style="fill:none;"/><clipPath id="_clip1"><rect x="-171.522" y="41.673" width="27.388" height="32.088"/></clipPath><g clip-path="url(#_clip1)"><g transform="matrix(0.839241,0.019495,0.016639,0.983244,-263.325312,-5.564327)"><path d="M113.903,70.913L133.439,51.363C133.806,51.964 134.302,52.474 134.891,52.858L115.394,72.367C115.012,71.778 114.503,71.281 113.903,70.913Z" style="fill:#dae0e6;"/></g><g transform="matrix(0.715797,0,0,0.838641,-162.808372,-53.919223)"><circle cx="22.167" cy="117.907" r="3.922" style="fill:#02c98c;"/></g><g transform="matrix(0.715797,0,0,0.838641,-184.626719,-28.356453)"><circle cx="22.167" cy="117.907" r="3.922" style="fill:#02c98c;"/></g></g></g></g></svg>