<?xml version="1.0" encoding="UTF-8" standalone="no"?><!DOCTYPE svg PUBLIC "-//W3C//DTD SVG 1.1//EN" "http://www.w3.org/Graphics/SVG/1.1/DTD/svg11.dtd"><svg width="32px" height="32px" version="1.1" xmlns="http://www.w3.org/2000/svg" xmlns:xlink="http://www.w3.org/1999/xlink" xml:space="preserve" xmlns:serif="http://www.serif.com/" style="fill-rule:evenodd;clip-rule:evenodd;stroke-linejoin:round;stroke-miterlimit:2;"><g transform="matrix(1,0,0,1,-37,-45.161018)"><g id="Palette"></g><g id="Guides"></g><g id="Polyline"></g><g id="Circle"></g><g id="Rectangle"></g><g id="Circle1" serif:id="Circle" transform="matrix(1,0,0,1,0,45.161018)"><rect x="37" y="0" width="32" height="32" style="fill:none;"/><g transform="matrix(0.931588,0,0,0.931588,3.601039,1.069795)"><path d="M68.465,8.565C69.558,10.822 70.171,13.353 70.171,16.027C70.171,25.489 62.489,33.171 53.027,33.171C43.564,33.171 35.882,25.489 35.882,16.027C35.882,6.564 43.564,-1.118 53.027,-1.118C55.7,-1.118 58.232,-0.505 60.488,0.589C59.936,1.109 59.489,1.74 59.181,2.446C57.305,1.593 55.221,1.118 53.027,1.118C44.798,1.118 38.118,7.798 38.118,16.027C38.118,24.255 44.798,30.935 53.027,30.935C61.255,30.935 67.935,24.255 67.935,16.027C67.935,13.833 67.46,11.749 66.607,9.872C67.313,9.565 67.944,9.118 68.465,8.565Z" style="fill:#dae0e6;"/></g><g transform="matrix(0.836339,0,0,0.836339,45.018213,-93.167801)"><circle cx="22.167" cy="117.907" r="3.922" style="fill:#02c98c;"/></g><g transform="matrix(0.836339,0,0,0.836339,34.460964,-82.610552)"><circle cx="22.167" cy="117.907" r="3.922" style="fill:#02c98c;"/></g></g></g></svg>